<svg width="80" height="61" viewBox="0 0 80 61" fill="none" xmlns="http://www.w3.org/2000/svg">
<path d="M38.1756 22.0587C39.321 21.4716 40.679 21.4716 41.8244 22.0587L70.8616 36.9403C73.7625 38.427 73.7625 42.573 70.8616 44.0597L41.8244 58.9413C40.679 59.5284 39.321 59.5284 38.1756 58.9413L9.13837 44.0597C6.23752 42.573 6.23752 38.427 9.13837 36.9403L38.1756 22.0587Z" stroke="#5528FF" stroke-width="2"/>
<path d="M38.1756 12.0587C39.321 11.4716 40.679 11.4716 41.8244 12.0587L70.8616 26.9403C73.7625 28.427 73.7625 32.573 70.8616 34.0597L41.8244 48.9413C40.679 49.5284 39.321 49.5284 38.1756 48.9413L9.13837 34.0597C6.23752 32.573 6.23752 28.427 9.13837 26.9403L38.1756 12.0587Z" fill="white" stroke="#5528FF" stroke-width="2"/>
<path d="M38.1756 2.05867C39.321 1.47164 40.679 1.47164 41.8244 2.05867L70.8616 16.9403C73.7625 18.427 73.7625 22.573 70.8616 24.0597L41.8244 38.9413C40.679 39.5284 39.321 39.5284 38.1756 38.9413L9.13837 24.0597C6.23752 22.573 6.23752 18.427 9.13837 16.9403L38.1756 2.05867Z" fill="white" stroke="#5528FF" stroke-width="2"/>
</svg>
