<svg width="62" height="54" viewBox="0 0 62 54" fill="none" xmlns="http://www.w3.org/2000/svg">
<path fill-rule="evenodd" clip-rule="evenodd" d="M4.453 53.835V49.01L61.813 27.853V32.679L4.453 53.835ZM26.183 37.66C26.183 37.66 25.559 37.143 25.57 35.29C25.579 33.954 25.57 29.966 25.57 29.966C25.57 29.162 25.276 28.796 24.759 28.796C24.537 28.795 24.242 28.867 23.872 29.012L21.659 29.811V39.316L16.494 41.201V13.787L25.054 10.666C26.16 10.23 27.12 10.013 27.859 10.088C29.48 10.092 30.146 11.117 30.146 13.457V19.818C30.146 21.5 28.873 23.588 26.953 24.606V24.681C27.248 24.607 27.543 24.608 27.764 24.608C29.167 24.612 30.77 25.498 30.737 27.308C30.737 27.308 30.72 32.011 30.737 33.606C30.754 35.339 31.349 35.773 31.349 35.773L26.183 37.66ZM24.907 17.099C24.907 16.222 24.759 15.927 24.242 15.926C24.022 15.926 23.726 15.924 23.284 16.07L21.659 16.651V25.131L23.209 24.551C24.464 24.116 24.907 23.386 24.907 22.143V17.099ZM50.377 29.376V1.886L55.541 -1.96695e-09V22.883L61.813 20.56V25.168L50.377 29.376ZM9.742 21.006V43.67L4.575 45.557V22.893L5.84126e-09 24.562V19.81L14.243 14.584V19.336L9.742 21.006ZM42.227 32.165L37.8 33.835C36.913 32.808 32.304 8.159 32.304 8.159L37.47 6.272C37.47 6.272 39.495 22.883 40.012 23.762C40.529 22.519 42.642 4.564 42.642 4.564L47.807 2.677C47.807 2.677 43.037 30.704 42.227 32.165Z" fill="#838997"/>
</svg>
