<svg width="155" height="48" viewBox="0 0 155 48" fill="none" xmlns="http://www.w3.org/2000/svg">
<path fill-rule="evenodd" clip-rule="evenodd" d="M63.896 9.29C63.3199 8.94411 62.7075 8.66243 62.07 8.45C61.3782 8.22119 60.6536 8.10735 59.925 8.113C59.531 8.113 59.171 8.15 58.845 8.226C58.5479 8.29089 58.2625 8.40119 57.999 8.553C57.7766 8.68149 57.5867 8.8594 57.444 9.073C57.3095 9.28214 57.2399 9.52639 57.244 9.775C57.236 10.0082 57.3123 10.2365 57.459 10.418C57.602 10.588 57.803 10.735 58.059 10.852C58.315 10.972 58.621 11.072 58.975 11.155C59.328 11.237 59.715 11.311 60.135 11.377L60.925 11.506C61.5222 11.5973 62.11 11.7426 62.681 11.94C63.1899 12.1132 63.6677 12.3671 64.096 12.692C64.496 13.002 64.812 13.378 65.043 13.82C65.272 14.262 65.387 14.783 65.387 15.383C65.387 16.148 65.23 16.813 64.917 17.377C64.6079 17.9353 64.1752 18.4156 63.652 18.781C63.0956 19.1658 62.4753 19.4489 61.82 19.617C61.1135 19.8032 60.3857 19.8964 59.655 19.894C59.122 19.894 58.585 19.855 58.045 19.78C57.5116 19.7054 56.9845 19.5914 56.468 19.439C55.9665 19.29 55.4781 19.0996 55.008 18.87C54.5629 18.6534 54.1422 18.3899 53.753 18.084L55.203 15.858C55.456 16.056 55.747 16.245 56.073 16.428C56.7846 16.8146 57.5527 17.0866 58.349 17.234C58.773 17.311 59.211 17.351 59.664 17.351C60.051 17.351 60.413 17.315 60.75 17.242C61.087 17.17 61.379 17.062 61.626 16.916C61.8553 16.7862 62.0533 16.6077 62.206 16.393C62.346 16.187 62.416 15.951 62.416 15.68C62.416 15.443 62.353 15.238 62.226 15.066C62.0759 14.8759 61.8821 14.7249 61.661 14.626C61.3631 14.487 61.0509 14.381 60.73 14.31C60.305 14.21 59.8763 14.1259 59.445 14.058L58.555 13.919C57.9724 13.8299 57.3995 13.6859 56.844 13.489C56.353 13.318 55.896 13.0618 55.494 12.732C55.1149 12.4172 54.8105 12.022 54.603 11.575C54.389 11.12 54.283 10.579 54.283 9.952C54.283 9.234 54.434 8.6 54.738 8.048C55.042 7.498 55.448 7.039 55.958 6.674C56.4966 6.29418 57.0982 6.01283 57.735 5.843C58.4288 5.65244 59.1455 5.55756 59.865 5.561C60.352 5.561 60.825 5.588 61.281 5.645C62.1883 5.75556 63.0744 5.99882 63.911 6.367C64.341 6.555 64.777 6.777 65.217 7.034L63.897 9.29H63.896ZM73.149 9.805C73.817 9.805 74.437 9.933 75.01 10.19C75.5728 10.4394 76.0798 10.7991 76.501 11.248C76.921 11.697 77.251 12.229 77.491 12.846C77.731 13.462 77.851 14.13 77.851 14.849C77.8573 15.5329 77.737 16.212 77.496 16.852C77.275 17.4438 76.9404 17.9867 76.511 18.45C76.091 18.898 75.594 19.25 75.021 19.508C74.4349 19.7678 73.8001 19.8994 73.159 19.894C72.506 19.894 71.947 19.779 71.484 19.553C71.0339 19.3355 70.6338 19.027 70.309 18.647V23.603H67.708V10.062H70.258V11.12C70.578 10.724 70.974 10.406 71.444 10.165C71.914 9.925 72.482 9.805 73.149 9.805ZM79.982 19.647H82.592V10.062H79.982V19.647ZM89.425 9.805C90.078 9.805 90.637 9.919 91.1 10.151C91.564 10.381 91.956 10.684 92.276 11.061V5.402H94.877V19.646H92.327V18.588C92.007 18.977 91.61 19.292 91.135 19.533C90.663 19.773 90.092 19.894 89.425 19.894C88.7846 19.8992 88.1505 19.7676 87.565 19.508C87.0023 19.2586 86.4953 18.8988 86.074 18.45C85.6449 17.9864 85.3104 17.4436 85.089 16.852C84.8475 16.2121 84.7268 15.5329 84.733 14.849C84.733 14.129 84.851 13.462 85.089 12.846C85.325 12.229 85.654 11.696 86.074 11.248C86.494 10.8 86.99 10.448 87.564 10.19C88.1497 9.93026 88.7843 9.79899 89.425 9.805ZM101.92 9.804C102.62 9.804 103.26 9.926 103.835 10.17C104.398 10.4045 104.905 10.7555 105.322 11.2C105.735 11.64 106.057 12.172 106.286 12.79C106.516 13.412 106.632 14.094 106.632 14.839C106.632 15.1297 106.616 15.4202 106.582 15.709H99.71C99.776 16.059 99.886 16.359 100.04 16.605C100.193 16.852 100.378 17.059 100.595 17.223C100.812 17.388 101.056 17.508 101.33 17.584C101.603 17.66 101.893 17.697 102.2 17.697C102.62 17.697 103.046 17.619 103.476 17.46C103.906 17.302 104.298 17.075 104.651 16.778L106.181 18.44C105.642 18.9325 105.007 19.308 104.316 19.543C103.585 19.7831 102.819 19.9016 102.05 19.894C101.31 19.894 100.631 19.773 100.015 19.533C99.42 19.3063 98.8783 18.9591 98.424 18.513C97.9725 18.0633 97.6197 17.5246 97.388 16.931C97.141 16.315 97.018 15.631 97.018 14.878C97.018 14.126 97.138 13.439 97.378 12.817C97.6019 12.2203 97.9441 11.6751 98.384 11.214C98.8213 10.7642 99.3475 10.4104 99.929 10.175C100.561 9.92149 101.238 9.79541 101.919 9.804H101.92ZM114.024 9.804C114.304 9.804 114.556 9.822 114.78 9.858C115.002 9.894 115.205 9.946 115.385 10.012L114.995 12.574C114.754 12.4734 114.502 12.3987 114.245 12.351C113.971 12.2965 113.693 12.2683 113.414 12.267C113.114 12.267 112.838 12.313 112.589 12.406C112.347 12.4929 112.127 12.631 111.944 12.811C111.764 12.989 111.624 13.214 111.524 13.483C111.418 13.7849 111.368 14.1032 111.374 14.423V19.647H108.762V10.062H111.293V11.11C111.574 10.6772 111.971 10.3326 112.439 10.116C112.895 9.908 113.424 9.804 114.024 9.804ZM63.896 29.302C63.3199 28.9561 62.7075 28.6744 62.07 28.462C61.3782 28.2332 60.6536 28.1193 59.925 28.125C59.531 28.125 59.171 28.162 58.845 28.238C58.5479 28.3029 58.2625 28.4132 57.999 28.565C57.7766 28.6935 57.5867 28.8714 57.444 29.085C57.3095 29.2941 57.2399 29.5384 57.244 29.787C57.236 30.0202 57.3123 30.2485 57.459 30.43C57.602 30.601 57.803 30.747 58.059 30.865C58.315 30.983 58.621 31.085 58.975 31.167C59.328 31.25 59.715 31.323 60.135 31.389L60.925 31.519C61.5222 31.6103 62.11 31.7556 62.681 31.953C63.1899 32.1262 63.6677 32.3801 64.096 32.705C64.496 33.015 64.812 33.39 65.043 33.832C65.272 34.274 65.387 34.795 65.387 35.395C65.387 36.161 65.23 36.825 64.917 37.389C64.6079 37.9473 64.1752 38.4276 63.652 38.793C63.0956 39.1778 62.4753 39.4609 61.82 39.629C61.1135 39.8152 60.3857 39.9084 59.655 39.906C59.122 39.906 58.585 39.868 58.045 39.792C57.5116 39.7174 56.9845 39.6034 56.468 39.451C55.9665 39.302 55.4781 39.1116 55.008 38.882C54.5629 38.6654 54.1422 38.4019 53.753 38.096L55.203 35.87C55.456 36.068 55.747 36.258 56.073 36.44C56.7846 36.8266 57.5527 37.0986 58.349 37.246C58.773 37.324 59.211 37.363 59.664 37.363C60.051 37.363 60.413 37.327 60.75 37.255C61.087 37.182 61.379 37.074 61.626 36.929C61.8554 36.7989 62.0534 36.62 62.206 36.405C62.346 36.199 62.416 35.963 62.416 35.693C62.416 35.455 62.353 35.25 62.226 35.079C62.0759 34.8889 61.8821 34.7379 61.661 34.639C61.3632 34.4997 61.051 34.3933 60.73 34.322C60.305 34.222 59.8763 34.1379 59.445 34.07L58.555 33.932C57.9724 33.8426 57.3995 33.6983 56.844 33.501C56.353 33.33 55.896 33.0738 55.494 32.744C55.1149 32.4292 54.8105 32.034 54.603 31.587C54.389 31.133 54.283 30.591 54.283 29.965C54.283 29.246 54.434 28.612 54.738 28.061C55.0356 27.5164 55.4527 27.0463 55.958 26.686C56.4967 26.3065 57.0983 26.0255 57.735 25.856C58.4288 25.6651 59.1454 25.5699 59.865 25.573C60.352 25.573 60.825 25.601 61.281 25.657C62.1883 25.7676 63.0744 26.0108 63.911 26.379C64.341 26.567 64.777 26.789 65.217 27.047L63.897 29.302H63.896ZM74.551 32.368H71.04V35.87C71.04 36.167 71.078 36.42 71.155 36.627C71.231 36.835 71.335 37.003 71.465 37.131C71.594 37.261 71.748 37.354 71.925 37.413C72.102 37.473 72.29 37.503 72.49 37.503C72.803 37.503 73.118 37.439 73.435 37.309C73.752 37.181 74.043 37.038 74.311 36.879L75.271 38.897C74.844 39.187 74.374 39.427 73.861 39.619C73.347 39.81 72.746 39.906 72.06 39.906C70.852 39.906 69.946 39.579 69.339 38.926C68.732 38.274 68.429 37.324 68.429 36.078V32.368H66.557V30.074H68.428V27.226H71.04V30.074H74.55V32.368H74.551ZM82.113 29.817C82.393 29.817 82.645 29.834 82.869 29.87C83.091 29.907 83.294 29.958 83.474 30.025L83.084 32.586C82.8426 32.4854 82.5912 32.4107 82.334 32.363C82.0603 32.3088 81.782 32.281 81.503 32.28C81.203 32.28 80.927 32.325 80.678 32.418C80.4362 32.5052 80.2162 32.6437 80.033 32.824C79.853 33.001 79.713 33.226 79.613 33.496C79.512 33.766 79.463 34.079 79.463 34.436V39.659H76.85V30.074H79.381V31.123C79.6615 30.6899 80.0588 30.3449 80.527 30.128C80.983 29.92 81.512 29.817 82.112 29.817H82.113ZM94.468 39.659H91.918V38.6C91.591 38.9948 91.185 39.3167 90.726 39.545C90.253 39.785 89.683 39.906 89.016 39.906C88.3757 39.9115 87.7415 39.7802 87.156 39.521C86.5932 39.2713 86.0862 38.9112 85.665 38.462C85.2357 37.9988 84.9008 37.4563 84.679 36.865C84.4377 36.2247 84.3173 35.5452 84.324 34.861C84.324 34.142 84.442 33.474 84.679 32.859C84.916 32.241 85.245 31.709 85.665 31.26C86.085 30.812 86.581 30.46 87.155 30.203C87.7407 29.9429 88.3752 29.8113 89.016 29.817C89.683 29.817 90.253 29.937 90.726 30.177C91.2 30.418 91.597 30.737 91.918 31.132V30.074H94.468V39.659ZM104.242 32.369H100.731V35.869C100.731 36.167 100.769 36.419 100.846 36.627C100.922 36.835 101.026 37.003 101.156 37.131C101.286 37.261 101.439 37.354 101.616 37.413C101.793 37.473 101.981 37.503 102.181 37.503C102.495 37.503 102.81 37.439 103.127 37.309C103.443 37.181 103.735 37.038 104.002 36.879L104.962 38.897C104.535 39.187 104.065 39.427 103.552 39.619C103.038 39.81 102.438 39.906 101.752 39.906C100.543 39.906 99.637 39.579 99.03 38.926C98.423 38.274 98.12 37.324 98.12 36.078V32.368H96.249V30.074H98.119V27.226H100.731V30.074H104.242V32.368V32.369ZM110.724 29.816C111.424 29.816 112.064 29.938 112.639 30.183C113.202 30.4172 113.709 30.7679 114.126 31.212C114.539 31.652 114.861 32.184 115.09 32.803C115.321 33.423 115.436 34.106 115.436 34.851C115.436 35.1417 115.42 35.4322 115.386 35.721H108.514C108.58 36.071 108.69 36.371 108.844 36.617C108.997 36.865 109.183 37.071 109.399 37.235C109.616 37.4 109.86 37.521 110.134 37.596C110.407 37.672 110.698 37.709 111.005 37.709C111.425 37.709 111.85 37.631 112.28 37.473C112.71 37.314 113.102 37.087 113.455 36.791L114.985 38.452C114.446 38.9443 113.812 39.3199 113.121 39.555C112.39 39.7952 111.624 39.9137 110.854 39.906C110.114 39.906 109.435 39.786 108.819 39.546C108.224 39.3193 107.682 38.9721 107.228 38.526C106.776 38.0761 106.424 37.5369 106.192 36.943C105.945 36.327 105.822 35.643 105.822 34.891C105.822 34.139 105.942 33.451 106.182 32.829C106.406 32.2323 106.748 31.6871 107.188 31.226C107.618 30.781 108.133 30.436 108.734 30.188C109.366 29.9341 110.043 29.8077 110.724 29.816ZM121.429 29.816C122.109 29.816 122.695 29.935 123.189 30.173C123.682 30.411 124.095 30.734 124.429 31.143V30.073H126.989V38.868C126.989 39.639 126.868 40.33 126.624 40.94C126.395 41.5295 126.036 42.06 125.574 42.492C125.098 42.9287 124.536 43.2609 123.924 43.467C123.28 43.691 122.559 43.803 121.758 43.803C120.987 43.8023 120.219 43.7042 119.472 43.511C119.115 43.418 118.765 43.2976 118.426 43.151C118.107 43.0133 117.802 42.8442 117.516 42.646L118.446 40.539C118.934 40.855 119.442 41.098 119.973 41.266C120.503 41.435 121.061 41.518 121.647 41.518C122.054 41.518 122.427 41.464 122.764 41.355C123.099 41.247 123.39 41.085 123.634 40.87C123.878 40.657 124.067 40.39 124.204 40.074C124.347 39.7263 124.417 39.3529 124.409 38.977V38.304C124.073 38.708 123.651 39.0325 123.174 39.254C122.683 39.484 122.102 39.6 121.429 39.6C120.845 39.6022 120.267 39.4827 119.732 39.249C119.198 39.0161 118.715 38.6796 118.312 38.259C117.889 37.8127 117.556 37.2887 117.332 36.716C117.082 36.0782 116.958 35.398 116.966 34.713C116.966 33.974 117.088 33.305 117.331 32.705C117.575 32.105 117.901 31.59 118.311 31.162C118.714 30.7393 119.197 30.4013 119.732 30.168C120.267 29.9338 120.845 29.8143 121.429 29.817V29.816ZM129.732 39.658H132.342V30.074H129.732V39.658ZM131.022 25.276C131.254 25.276 131.473 25.319 131.676 25.405C131.875 25.4854 132.056 25.6046 132.208 25.7557C132.36 25.9068 132.48 26.0868 132.562 26.285C132.649 26.49 132.692 26.708 132.692 26.938C132.693 27.1558 132.651 27.3717 132.568 27.573C132.485 27.7742 132.362 27.9568 132.207 28.11C132.057 28.258 131.88 28.374 131.676 28.457C131.468 28.5398 131.246 28.5815 131.022 28.58C130.797 28.5817 130.575 28.5399 130.366 28.457C130.168 28.3786 129.989 28.2612 129.837 28.1117C129.686 27.9622 129.567 27.7837 129.486 27.587C129.402 27.3811 129.359 27.1605 129.361 26.938C129.361 26.708 129.402 26.49 129.486 26.286C129.569 26.08 129.686 25.904 129.836 25.756C130.152 25.4457 130.579 25.2732 131.022 25.276ZM139.384 29.816C140.084 29.816 140.724 29.938 141.299 30.183C141.862 30.4172 142.369 30.7679 142.786 31.212C143.199 31.652 143.521 32.184 143.75 32.803C143.981 33.423 144.096 34.106 144.096 34.851C144.096 35.1417 144.08 35.4322 144.046 35.721H137.174C137.24 36.071 137.35 36.371 137.504 36.617C137.657 36.865 137.842 37.071 138.059 37.235C138.276 37.4 138.52 37.521 138.794 37.596C139.067 37.672 139.358 37.709 139.665 37.709C140.085 37.709 140.51 37.631 140.94 37.473C141.37 37.314 141.762 37.087 142.115 36.791L143.645 38.452C143.106 38.9445 142.471 39.32 141.78 39.555C141.049 39.7951 140.283 39.9136 139.514 39.906C138.774 39.906 138.095 39.786 137.479 39.546C136.884 39.3193 136.342 38.9721 135.888 38.526C135.436 38.0761 135.084 37.5369 134.852 36.943C134.605 36.327 134.482 35.643 134.482 34.891C134.482 34.139 134.602 33.451 134.842 32.829C135.066 32.2323 135.408 31.6871 135.848 31.226C136.278 30.781 136.793 30.436 137.394 30.188C138.026 29.9341 138.703 29.8077 139.384 29.816ZM153.109 32.744C152.65 32.5275 152.172 32.3505 151.683 32.215C151.41 32.1385 151.133 32.0774 150.853 32.032C150.577 31.9866 150.298 31.9632 150.018 31.962C149.518 31.962 149.144 32.042 148.898 32.2C148.651 32.359 148.528 32.57 148.528 32.834C148.524 32.961 148.569 33.0847 148.653 33.18C148.746 33.2796 148.861 33.3571 148.988 33.407C149.128 33.466 149.294 33.515 149.488 33.551C149.682 33.587 149.888 33.621 150.108 33.655L150.968 33.783C152.022 33.942 152.831 34.255 153.394 34.723C153.958 35.191 154.24 35.833 154.24 36.652C154.24 37.147 154.14 37.595 153.94 37.996C153.736 38.4022 153.437 38.7533 153.069 39.02C152.689 39.3 152.222 39.519 151.669 39.674C151.056 39.836 150.423 39.914 149.789 39.906C149.454 39.906 149.103 39.888 148.732 39.852C148.355 39.8139 147.981 39.7528 147.612 39.669C147.232 39.582 146.859 39.4664 146.497 39.323C146.137 39.1814 145.795 38.9985 145.477 38.778L146.507 36.82C146.713 36.958 146.934 37.084 147.167 37.196C147.681 37.441 148.229 37.6075 148.793 37.69C149.103 37.737 149.441 37.76 149.808 37.76C150.415 37.76 150.865 37.68 151.158 37.522C151.452 37.363 151.598 37.143 151.598 36.86C151.598 36.628 151.472 36.444 151.218 36.306C150.964 36.166 150.555 36.059 149.988 35.98L149.198 35.87C146.963 35.567 145.847 34.598 145.847 32.962C145.847 32.467 145.94 32.027 146.127 31.642C146.314 31.255 146.583 30.928 146.937 30.657C147.29 30.387 147.719 30.181 148.223 30.039C148.782 29.8897 149.359 29.818 149.938 29.826C150.324 29.826 150.694 29.845 151.044 29.881C151.722 29.9539 152.39 30.1046 153.034 30.33C153.351 30.444 153.669 30.578 153.989 30.737L153.109 32.744ZM20.863 0L11.071 5.68V16.235L29.976 5.205L20.863 0ZM9.335 6.638L0 11.91V28.54L9.335 23.263V6.638ZM37.103 9.272L0 30.455V35.737L4.627 38.377L41.731 17.196V11.913L37.103 9.273V9.272ZM20.867 47.65L30.66 41.972V31.417L11.754 42.446L20.867 47.65ZM32.397 41.015L41.731 35.739V19.107L32.398 24.387V41.015H32.397ZM122.089 32.191C121.715 32.191 121.379 32.257 121.078 32.388C120.787 32.5138 120.525 32.6975 120.308 32.928C120.092 33.1588 119.926 33.431 119.818 33.728C119.704 34.035 119.648 34.363 119.648 34.713C119.648 35.063 119.704 35.389 119.818 35.693C119.926 35.9897 120.093 36.2613 120.31 36.4909C120.527 36.7204 120.788 36.9032 121.078 37.028C121.397 37.1633 121.741 37.2308 122.088 37.226C122.448 37.226 122.779 37.161 123.078 37.033C123.369 36.911 123.632 36.7303 123.849 36.5021C124.067 36.2739 124.236 36.0032 124.344 35.707C124.46 35.401 124.519 35.069 124.519 34.713C124.522 34.3721 124.462 34.0336 124.344 33.714C124.235 33.4161 124.067 33.1435 123.849 32.913C123.635 32.689 123.379 32.513 123.079 32.383C122.766 32.2518 122.429 32.1864 122.089 32.191ZM89.496 32.221C89.116 32.221 88.771 32.289 88.461 32.428C88.1601 32.5594 87.89 32.7522 87.6679 32.9939C87.4458 33.2357 87.2765 33.5211 87.171 33.832C87.0527 34.1624 86.9931 34.511 86.995 34.862C86.995 35.23 87.054 35.574 87.17 35.894C87.286 36.214 87.454 36.494 87.67 36.731C87.887 36.968 88.15 37.156 88.46 37.294C88.77 37.433 89.116 37.502 89.496 37.502C89.869 37.502 90.21 37.436 90.516 37.304C90.823 37.173 91.086 36.988 91.306 36.751C91.526 36.513 91.697 36.233 91.817 35.91C91.937 35.587 91.997 35.237 91.997 34.861C91.997 34.485 91.937 34.135 91.817 33.813C91.7039 33.5022 91.5306 33.2167 91.307 32.973C91.0856 32.7342 90.8165 32.5448 90.517 32.417C90.194 32.2825 89.8469 32.2155 89.497 32.22L89.496 32.221ZM110.704 32.041C110.084 32.041 109.594 32.212 109.234 32.551C108.874 32.891 108.637 33.361 108.524 33.961H112.816C112.696 33.341 112.456 32.866 112.096 32.537C111.735 32.207 111.271 32.042 110.704 32.042V32.041ZM139.364 32.041C138.744 32.041 138.254 32.212 137.894 32.551C137.534 32.891 137.297 33.361 137.184 33.961H141.476C141.356 33.341 141.116 32.866 140.756 32.537C140.395 32.207 139.931 32.042 139.364 32.042V32.041ZM89.906 12.209C89.526 12.209 89.18 12.279 88.87 12.416C88.5691 12.5475 88.2989 12.7404 88.0767 12.9824C87.8546 13.2243 87.6854 13.5099 87.58 13.821C87.4618 14.1511 87.4022 14.4994 87.404 14.85C87.404 15.219 87.463 15.563 87.58 15.883C87.696 16.203 87.863 16.482 88.08 16.719C88.296 16.957 88.56 17.145 88.87 17.283C89.18 17.422 89.526 17.491 89.906 17.491C90.279 17.491 90.619 17.425 90.926 17.293C91.232 17.162 91.496 16.976 91.716 16.74C91.936 16.502 92.106 16.222 92.226 15.898C92.346 15.576 92.406 15.226 92.406 14.85C92.406 14.474 92.346 14.124 92.226 13.802C92.1129 13.4912 91.9396 13.2057 91.716 12.962C91.4946 12.7232 91.2255 12.5338 90.926 12.406C90.603 12.2715 90.2559 12.2045 89.906 12.209ZM81.273 5.265C81.6007 5.26266 81.9218 5.3573 82.1958 5.53702C82.4698 5.71674 82.6846 5.97351 82.813 6.275C82.9 6.479 82.943 6.696 82.943 6.927C82.944 7.14477 82.9017 7.36056 82.8184 7.56179C82.7351 7.76301 82.6126 7.94563 82.458 8.099C82.308 8.247 82.131 8.363 81.927 8.445C81.7192 8.52852 81.497 8.57065 81.273 8.569C81.039 8.569 80.82 8.528 80.617 8.445C80.4195 8.36636 80.2398 8.24882 80.0886 8.09937C79.9375 7.94991 79.8179 7.77159 79.737 7.575C79.6524 7.3695 79.6096 7.14922 79.611 6.927C79.611 6.696 79.653 6.479 79.737 6.274C79.8163 6.07529 79.9352 5.89481 80.0865 5.74352C80.2378 5.59224 80.4183 5.47332 80.617 5.394C80.82 5.307 81.039 5.265 81.273 5.265ZM72.67 12.209C72.3214 12.204 71.9755 12.271 71.654 12.406C71.3564 12.534 71.0889 12.7231 70.869 12.961C70.649 13.199 70.479 13.479 70.359 13.801C70.237 14.1371 70.176 14.4924 70.179 14.85C70.179 15.226 70.239 15.576 70.359 15.898C70.479 16.222 70.649 16.502 70.869 16.74C71.089 16.976 71.35 17.162 71.654 17.293C71.958 17.425 72.297 17.491 72.67 17.491C73.0275 17.4968 73.3822 17.4259 73.71 17.283C74.0093 17.151 74.2779 16.9585 74.4991 16.7176C74.7203 16.4766 74.8891 16.1924 74.995 15.883C75.112 15.563 75.171 15.219 75.171 14.85C75.171 14.487 75.112 14.144 74.995 13.82C74.8855 13.5097 74.7155 13.2242 74.495 12.98C74.2746 12.7403 74.0075 12.5484 73.71 12.416C73.382 12.2738 73.0274 12.2032 72.67 12.209ZM101.9 12.031C101.28 12.031 100.79 12.201 100.43 12.541C100.07 12.881 99.832 13.349 99.72 13.95H104.011C103.891 13.33 103.651 12.855 103.291 12.526C102.931 12.196 102.466 12.031 101.901 12.031H101.9Z" fill="#B2B2B2"/>
</svg>
